<?xml version="1.0" encoding="utf-8"?>
<!-- Generator: Adobe Illustrator 15.0.0, SVG Export Plug-In . SVG Version: 6.00 Build 0)  -->
<!DOCTYPE svg PUBLIC "-//W3C//DTD SVG 1.1//EN" "http://www.w3.org/Graphics/SVG/1.1/DTD/svg11.dtd">
<svg version="1.1" id="Layer_1" xmlns="http://www.w3.org/2000/svg" xmlns:xlink="http://www.w3.org/1999/xlink" x="0px" y="0px"
	 width="612px" height="792px" viewBox="0 0 612 792" enable-background="new 0 0 612 792" xml:space="preserve">
<g>
	<path d="M428.4,258.3L109.65,424.05c-5.1,2.55-7.65,7.65-7.65,12.75c2.55,5.101,7.65,10.2,12.75,10.2H255v140.25
		c0,5.1,5.1,10.2,10.2,12.75h2.55c5.1,0,10.2-2.55,10.2-7.65L443.7,273.6c2.55-5.1,2.55-10.2-2.55-15.3
		C438.6,255.75,433.5,255.75,428.4,258.3z M306,90C137.7,90,0,227.7,0,396s137.7,306,306,306s306-137.7,306-306S474.3,90,306,90z
		 M306,676.5C150.45,676.5,25.5,551.55,25.5,396S150.45,115.5,306,115.5S586.5,240.45,586.5,396S461.55,676.5,306,676.5z"/>
</g>
</svg>
